<?xml version="1.0" standalone="no"?>
<!DOCTYPE svg PUBLIC "-//W3C//DTD SVG 20010904//EN"
 "http://www.w3.org/TR/2001/REC-SVG-20010904/DTD/svg10.dtd">
<svg version="1.0" xmlns="http://www.w3.org/2000/svg"
 width="210.000000pt" height="210.000000pt" viewBox="0 0 210.000000 210.000000"
 preserveAspectRatio="xMidYMid meet">

<g transform="translate(0.000000,210.000000) scale(0.100000,-0.100000)"
fill="#272727" stroke="none">
<path d="M260 1921 c-11 -8 -16 -37 -20 -117 -5 -117 -5 -116 -75 -134 -22 -5
-55 -19 -72 -30 l-33 -20 0 -608 c0 -480 3 -612 13 -626 12 -17 17 -16 92 4
111 31 343 39 473 16 124 -22 239 -61 317 -108 35 -21 72 -38 82 -38 10 0 63
22 118 50 55 27 145 62 200 77 93 25 114 27 295 27 170 0 205 -3 275 -22 66
-19 81 -20 92 -9 18 18 20 1231 2 1253 -6 7 -36 20 -67 29 -109 30 -102 21
-102 134 0 130 -5 136 -112 127 -150 -12 -336 -84 -473 -181 -33 -23 -95 -79
-138 -124 -42 -44 -80 -81 -84 -81 -3 0 -39 35 -79 78 -160 172 -394 289 -616
307 -43 4 -79 2 -88 -4z m-20 -766 c0 -522 -12 -468 110 -480 97 -8 207 -38
281 -75 105 -52 241 -151 227 -165 -4 -4 -35 2 -70 14 -159 53 -386 69 -538
37 -41 -9 -83 -16 -92 -16 -17 0 -18 33 -18 555 l0 556 33 14 c72 32 67 67 67
-440z m1698 434 l22 -9 0 -561 0 -561 -22 6 c-202 56 -461 43 -680 -33 -32
-11 -60 -16 -63 -11 -7 11 83 90 167 146 113 76 230 115 388 129 41 4 81 12
88 17 9 8 12 111 12 455 l0 445 33 -7 c17 -4 42 -11 55 -16z"/>
</g>
</svg>
